<svg width="845" height="780" fill="none" xmlns="http://www.w3.org/2000/svg"><path d="M238.803 176H133.321c-16.405 0-29.705 13.316-29.705 29.742v241.337c0 16.426 13.3 29.741 29.705 29.741h105.482c16.406 0 29.705-13.315 29.705-29.741V205.742c0-16.426-13.299-29.742-29.705-29.742Z" fill="#3F3D56"/><path d="M265.727 205.744v241.335c-.009 7.147-2.848 13.999-7.895 19.052-5.048 5.054-11.891 7.897-19.029 7.905H133.322c-7.138-.008-13.981-2.851-19.029-7.905-5.047-5.053-7.886-11.905-7.895-19.052V205.744c.009-7.147 2.848-13.999 7.895-19.053 5.048-5.053 11.891-7.896 19.029-7.904h13.794v4.77c0 2.16.857 4.231 2.382 5.758 1.525 1.527 3.594 2.385 5.751 2.386h61.627c2.157-.001 4.226-.859 5.751-2.386 1.525-1.527 2.382-3.598 2.382-5.758v-4.77h13.794c7.138.008 13.981 2.851 19.029 7.904 5.047 5.054 7.886 11.906 7.895 19.053Z" fill="#fff"/><path d="M102.858 237.025c-.537-.001-1.051-.214-1.43-.594-.38-.38-.593-.895-.594-1.432v-4.051c0-.537.214-1.053.593-1.433.379-.379.894-.593 1.431-.593.536 0 1.051.214 1.43.593.38.38.593.896.593 1.433v4.051c-.001.537-.214 1.052-.593 1.432-.38.38-.894.593-1.43.594Zm0 20.775c-.537-.001-1.051-.215-1.43-.594-.38-.38-.593-.895-.594-1.432v-11.153c0-.537.214-1.052.593-1.432.379-.38.894-.593 1.431-.593.536 0 1.051.213 1.43.593.38.38.593.895.593 1.432v11.153c-.001.537-.214 1.052-.593 1.432-.38.379-.894.593-1.43.594Zm0 16.701c-.537-.001-1.051-.214-1.43-.594-.38-.38-.593-.895-.594-1.432v-11.152c0-.537.214-1.053.593-1.433.379-.379.894-.593 1.431-.593.536 0 1.051.214 1.43.593.38.38.593.896.593 1.433v11.152c-.001.537-.214 1.052-.593 1.432-.38.38-.894.593-1.43.594Zm165.903-9.116c-.536 0-1.051-.214-1.43-.594s-.593-.894-.593-1.432v-27.212c0-.537.213-1.052.592-1.432.38-.38.894-.594 1.431-.594s1.051.214 1.431.594c.379.38.592.895.592 1.432v27.212c0 .538-.214 1.052-.593 1.432-.379.38-.894.594-1.43.594Z" fill="#3F3D56"/><path d="M190.408 185.291h-15.68c-.335 0-.657-.133-.894-.371-.237-.237-.37-.559-.37-.895 0-.336.133-.658.37-.895.237-.238.559-.371.894-.371h15.68c.336 0 .657.133.894.371.238.237.371.559.371.895 0 .336-.133.658-.371.895-.237.238-.558.371-.894.371Zm8.093-.253c.559 0 1.012-.454 1.012-1.013 0-.56-.453-1.013-1.012-1.013-.558 0-1.011.453-1.011 1.013 0 .559.453 1.013 1.011 1.013Z" fill="#fff"/><path d="M141.089 190.724h-13.657c-.67 0-1.314-.267-1.788-.742s-.741-1.119-.741-1.791c0-.671.267-1.315.741-1.79.474-.475 1.118-.742 1.788-.742h13.657c.671 0 1.314.267 1.788.742.475.475.741 1.119.741 1.79 0 .672-.266 1.316-.741 1.791-.474.475-1.117.742-1.788.742Zm89.527-.254c1.258 0 2.277-1.02 2.277-2.279 0-1.258-1.019-2.279-2.277-2.279-1.257 0-2.276 1.021-2.276 2.279 0 1.259 1.019 2.279 2.276 2.279Zm7.082 0c1.257 0 2.276-1.02 2.276-2.279 0-1.258-1.019-2.279-2.276-2.279-1.258 0-2.277 1.021-2.277 2.279 0 1.259 1.019 2.279 2.277 2.279Zm7.081 0c1.257 0 2.276-1.02 2.276-2.279 0-1.258-1.019-2.279-2.276-2.279s-2.276 1.021-2.276 2.279c0 1.259 1.019 2.279 2.276 2.279Z" fill="#E6E6E6"/><path d="M229.025 226.115H143.19c-1.663.002-3.257.665-4.432 1.842-1.176 1.177-1.838 2.773-1.84 4.438v55.864c.002 1.665.664 3.261 1.84 4.438 1.175 1.177 2.769 1.84 4.432 1.842h85.835c1.663-.001 3.257-.664 4.433-1.841 1.176-1.177 1.837-2.774 1.839-4.439v-55.864c-.002-1.665-.663-3.262-1.839-4.439s-2.77-1.84-4.433-1.841Z" fill="#F2F2F2"/><path d="M202.153 249.964c-7.757 13.731-16.317 26.993-25.635 39.714h-13.46c8.816-10.754 17.639-21.509 26.469-32.263 2.533-3.096 5.282-6.34 9.082-7.599l3.544.148Z" fill="#3F3D56"/><path d="M184.265 247.762c-1.405 1.465-2.75 2.988-4.016 4.571-2.788 3.362-5.538 6.753-8.296 10.135-1.719 2.104-3.437 4.207-5.135 6.311-.54-.347-1.052-.735-1.532-1.16-2.713-2.358-4.395-5.685-4.687-9.27-.292-3.585.83-7.142 3.126-9.908 2.295-2.767 5.582-4.523 9.155-4.892 3.573-.37 7.149.677 9.961 2.915.507.396.983.83 1.424 1.298Z" fill="#6C63FF"/><path d="M235.297 246.165v2.041l-.91-.335-12.812-4.689c-4.173-1.525-8.336-3.267-12.645-4.366-3.75-1.074-7.731-1.022-11.452.147-3.316 1.229-6.351 3.115-8.922 5.546-1.138 1.053-2.241 2.132-3.308 3.251-.349.37-.698.739-1.042 1.109-1.032 1.124-2.028 2.274-2.974 3.464-2.787 3.363-5.539 6.756-8.295 10.134-1.72 2.106-3.44 4.208-5.139 6.31-5.675 6.953-11.317 13.92-16.924 20.9-.756-.008-1.508-.103-2.241-.283 5.72-7.116 11.468-14.213 17.243-21.291.131-.162.263-.324.394-.486.678-.846 1.371-1.696 2.059-2.542 2.878-3.53 5.758-7.056 8.639-10.58 2.094-2.562 4.173-5.135 6.429-7.566.136-.157.278-.309.425-.466.217-.233.435-.46.657-.698 4.901-5.07 11.016-9.552 18.341-9.673 4.309-.066 8.472 1.301 12.478 2.745 4.314 1.564 8.614 3.155 12.923 4.735l7.076 2.593Z" fill="#3F3D56"/><path d="M237.315 417.881H134.81c-1.663-.002-3.257-.664-4.433-1.841-1.176-1.177-1.837-2.774-1.839-4.438V397.77c.002-1.665.663-3.261 1.839-4.438 1.176-1.178 2.77-1.84 4.433-1.842h102.505c1.663.002 3.257.664 4.433 1.842 1.175 1.177 1.837 2.773 1.839 4.438v13.832c-.002 1.664-.664 3.261-1.839 4.438-1.176 1.177-2.77 1.839-4.433 1.841Zm0-70.9H134.81c-1.663-.002-3.257-.665-4.433-1.842-1.176-1.177-1.837-2.773-1.839-4.438v-13.832c.002-1.665.663-3.261 1.839-4.438 1.176-1.177 2.77-1.839 4.433-1.841h102.505c1.663.002 3.257.664 4.433 1.841 1.175 1.177 1.837 2.773 1.839 4.438v13.832c-.002 1.665-.664 3.261-1.839 4.438-1.176 1.177-2.77 1.84-4.433 1.842Zm0 35.45H134.81c-1.663-.002-3.257-.664-4.433-1.842-1.176-1.177-1.837-2.773-1.839-4.438v-13.832c.002-1.664.663-3.26 1.839-4.438 1.176-1.177 2.77-1.839 4.433-1.841h102.505c1.663.002 3.257.664 4.433 1.841 1.175 1.178 1.837 2.774 1.839 4.438v13.832c-.002 1.665-.664 3.261-1.839 4.438-1.176 1.178-2.77 1.84-4.433 1.842Z" fill="#F2F2F2"/><path d="M198.516 402.318h-30.203c-.358 0-.702-.142-.955-.396s-.396-.598-.396-.956c0-.359.143-.703.396-.957s.597-.396.955-.396h30.203c.358 0 .702.142.955.396.254.254.396.598.396.957 0 .358-.142.702-.396.956-.253.254-.597.396-.955.396Zm29.048 7.441h-59.588c-.359 0-.702-.143-.956-.397-.253-.253-.395-.597-.395-.956s.142-.703.395-.957c.254-.253.597-.396.956-.396h59.588c.358 0 .702.143.955.396.254.254.396.598.396.957s-.142.703-.396.956c-.253.254-.597.397-.955.397Zm-75.296 3.997c5.003 0 9.059-4.061 9.059-9.07 0-5.01-4.056-9.07-9.059-9.07-5.003 0-9.059 4.06-9.059 9.07 0 5.009 4.056 9.07 9.059 9.07Z" fill="#fff"/><path d="M150.25 416.937c-.925-.433-1.981-.487-2.945-.151-.964.335-1.759 1.034-2.216 1.947-.09.187-.164.382-.222.581l-13.641.816-2.022 7.076 18.566-3.14c.844.176 1.724.068 2.5-.308.777-.376 1.407-.999 1.793-1.772.215-.442.341-.922.371-1.412.031-.491-.036-.983-.196-1.447-.16-.465-.409-.894-.735-1.262-.325-.368-.719-.669-1.16-.884-.031-.015-.062-.03-.093-.044Z" fill="#FFB6B6"/><path d="M120.14 382.034c-.899-.368-1.867-.539-2.837-.499-.971.04-1.921.288-2.787.728-.866.44-1.627 1.062-2.232 1.823-.604.761-1.038 1.644-1.271 2.588l-3.751 15.164.706 26.529s19.575 3.761 22.862 1.343c3.286-2.417 2.977-4.217 3.286-2.417.308 1.799 1.719 2.554 1.738 1.838.02-.715.18-.593.999-.809.818-.215 4.433-1.549 4.433-1.549l.162-7.564s-5.976-2.268-7.425-1.591c-1.45.676.308 1.799-1.45.676-1.758-1.122-1.95-4.667-2.251-1.473-.301 3.195-1.181 3.789-2.499 2.369s-7.425-.513-7.425-.513l3.886-29.489c.195-1.484-.105-2.99-.855-4.284-.75-1.294-1.906-2.304-3.289-2.87Z" fill="#6C63FF"/><path d="m251.97 460.705.205-5.586-21.421-3.454-.304 8.245 21.52.795Z" fill="#FFB6B6"/><path d="m248.081 462.386-.203-8.943 3.819.141 6.165-8.269c.304-.408.731-.708 1.218-.857.487-.148 1.009-.137 1.489.033.48.169.893.488 1.179.909.287.422.431.924.412 1.433l-.391 10.625-3.845 1.692 3.751.854-.148 4.006-13.446-1.624Zm-116.674 11.129 67.85-7.9s29.3 1.694 36.174-2.783l7.25-.917.392-10.661s-4.433.032-6.981-1.157c-2.549-1.189-.778-2.643-3.208-1.213-2.43 1.431-2.173 1.603-4.052.945-1.879-.657-88.035-4.183-88.035-4.183l-9.39 27.869Z" fill="#2F2E41"/><path d="m220.815 468.888 3.945-3.955-13.358-17.119-5.823 5.837 15.236 15.237Z" fill="#FFB6B6"/><path d="m216.822 467.473 5.926-6.695 2.704 2.704 10.136-1.863c.501-.092 1.018-.022 1.476.201.457.223.832.587 1.069 1.038.236.451.323.966.247 1.47-.077.504-.312.97-.672 1.33l-7.504 7.523-3.968-1.378 2.17 3.181-2.83 2.836-8.754-10.347Z" fill="#2F2E41"/><path d="m104.638 436.31.674 15.699c.794 18.481 21.122 29.667 36.885 20.017.291-.178.582-.362.874-.552 0 0 5.976-1.607 5.795-4.152-.182-2.544 1.278-3.783 2.57-3.089 1.292.694 18.207-23.342 18.207-23.342s35.144 17.553 42.897 21.685l8.181-2.232s3.079 1.456 1.97-.65c-1.11-2.105-1.308-1.097-1.649-3.391-.341-2.294-1.212-5.139-1.741-5.019-.528.119-43.477-29.978-43.477-29.978s-6.997-7.09-15.677-2.409c-.18.688-.026.712-.026.712L131.45 443l-4.051-7.703-22.761 1.013Z" fill="#2F2E41"/><path d="m123.908 378.625-12.293-5.768-3.68 6.412s-9.8844 14.122-10.0278 24.311c-.1433 10.188 1.6108 13.218 1.6108 13.218s-4.2617 3.19-2.1308 5.14c2.1308 1.95 6.8488 2.792 3.2248 3.637-3.623.845-2.7048 9.404 1.342 10.923 4.046 1.519 25.778 1.506 25.778 1.506-.196-.664-.21-1.367-.042-2.038.168-.671.512-1.285.997-1.778 1.685-1.691 3.202-.477 1.685-3.11-1.517-2.632-4.046-1.113-2.023-4.658 2.023-3.545 2.022-4.604 2.022-4.604s4.125-7.859-2.088-16.386c-.378-.519-.06-.539-.06-.539l-5.017-16.832.702-9.434Z" fill="#6C63FF"/><path d="M104.098 354.371c.104 2.6-1.533 6.283-2.339 8.504-.861 2.375 2.873 5.527 5.263 6.217.124-.823.534-1.575 1.158-2.125-.173.784-.188 1.594-.044 2.384l20.205 4.606c3.635-4.215 7.29-10.274 6.493-17.582.191-1.388-.032-2.801-.64-4.062-.609-1.262-1.576-2.315-2.78-3.028l-10.215-6.042c-4.345-.99-9.816-1.588-12.955 1.104-1.402 1.249-2.503 2.799-3.221 4.535-.719 1.736-1.035 3.613-.925 5.489Z" fill="#2F2E41"/><path d="M122.158 371.73c6.425 0 11.634-5.215 11.634-11.648s-5.209-11.648-11.634-11.648c-6.425 0-11.633 5.215-11.633 11.648s5.208 11.648 11.633 11.648Z" fill="#FFB6B6"/><path d="m108.53 353.859-.562 2.469 9.815 2.237c.008-.499.12-.991.328-1.445.207-.454.507-.861.879-1.193-.212.968-.188 1.973.07 2.93 5.293 2.973 10.064 4.027 14.341 3.268.58.133 1.188.029 1.691-.288.503-.317.86-.821.992-1.401 1.721-7.57-2.788-15.307-10.311-17.186-1.829-.458-3.731-.546-5.594-.258-1.863.288-3.649.945-5.255 1.933-1.606.988-2.999 2.287-4.097 3.822-1.098 1.534-1.879 3.272-2.297 5.112Z" fill="#2F2E41"/><path d="M114.268 337.57c1.294-.282 2.664-.214 3.834-1.091l-.768 1.763c2.128-.583 4.396-.356 6.366.637.586.263 1.085.686 1.441 1.222.191.323.308.685.34 1.059.033.374-.018.751-.15 1.103-.126.301-.313.573-.55.798-.237.225-.518.399-.825.509-.545.164-1.115.224-1.682.176-2.389-.056-4.777-.111-7.166-.167-.91.057-1.819-.12-2.642-.514-.438-.271-.787-.663-1.005-1.129-.217-.467-.294-.987-.221-1.496.228-1.603 1.734-2.589 3.028-2.87Z" fill="#2F2E41"/><path d="M177.374 428.859c-.027-.033-.059-.063-.095-.087-.087-.101-.193-.184-.311-.245l-.852-.456-5.651-6.282c-.327-.171-.708-.207-1.061-.102l-.015.005-2.421.749-2.082.647-2.909.903-19.81 6.142-13.022 4.036c-.352.112-.646.357-.819.684-.173.327-.211.708-.106 1.063.061.195.162.375.297.529l.415.461.869.97 2.013 4.178.559.624c.178.199.409.343.666.415.256.072.528.07.784-.007l42.899-11.944c.223-.073.425-.199.588-.367.162-.169.281-.375.346-.601.064-.225.072-.463.023-.692-.049-.23-.154-.444-.305-.623Z" fill="#CCC"/><path d="m174.827 366.717-.83.135c-.228.038-.432.164-.567.352l-.366.512-3.301 8.266c-.135.189-.189.424-.15.653l.387 2.355-1.462 42.036c.037.218.153.414.327.549l6.41 8.586.149.119.323.253c.166.128.371.193.58.184l.545-.026c.124-.006.245-.038.355-.094.11-.057.207-.136.285-.232.078-.096.135-.208.166-.327.032-.12.037-.245.016-.367l-1.86-62.235c-.037-.228-.164-.432-.352-.567-.188-.135-.422-.19-.65-.152h-.005Z" fill="#CCC"/><path d="m173.436 369.984-2.924 8.919-1.132 35.63 4.553 4.051-.497-48.6Z" fill="#6C63FF"/><path d="M150.821 424.332c-.925-.432-1.981-.487-2.945-.151-.964.335-1.759 1.034-2.216 1.948-.09.187-.164.381-.222.58l-13.641.816-2.022 7.077 18.566-3.141c.844.176 1.723.068 2.5-.308.777-.376 1.407-.999 1.793-1.772.434-.892.497-1.921.175-2.859-.323-.939-1.005-1.711-1.896-2.146-.03-.015-.061-.03-.092-.044Z" fill="#FFB6B6"/><path d="M120.71 389.429c-.898-.368-1.866-.538-2.836-.499-.971.04-1.921.288-2.787.728-.866.441-1.627 1.062-2.232 1.823-.604.762-1.038 1.644-1.272 2.588l-3.75 15.164.705 26.529s19.576 3.761 22.862 1.343c3.287-2.417 2.978-4.217 3.287-2.417.308 1.799 1.719 2.555 1.738 1.839.02-.716.179-.594.998-.81.819-.215 4.434-1.549 4.434-1.549l.161-7.564s-5.975-2.268-7.425-1.591c-1.449.677.309 1.8-1.449.677s-1.951-4.668-2.251-1.473c-.301 3.194-1.181 3.789-2.499 2.368-1.318-1.42-7.426-.513-7.426-.513l3.887-29.489c.195-1.484-.105-2.99-.855-4.284-.75-1.294-1.907-2.303-3.29-2.87Z" fill="#6C63FF"/><path d="M319.255 346.981H216.75c-1.663-.002-3.257-.665-4.433-1.842-1.175-1.177-1.837-2.773-1.838-4.438v-13.832c.001-1.665.663-3.261 1.838-4.438 1.176-1.177 2.77-1.839 4.433-1.841h102.505c1.663.002 3.257.664 4.433 1.841 1.176 1.177 1.837 2.773 1.839 4.438v13.832c-.002 1.665-.663 3.261-1.839 4.438-1.176 1.177-2.77 1.84-4.433 1.842Z" fill="#E6E6E6"/><path d="M280.456 331.418h-30.202c-.358 0-.702-.143-.955-.396-.254-.254-.396-.598-.396-.957s.142-.703.396-.956c.253-.254.597-.397.955-.397h30.202c.359 0 .702.143.956.397.253.253.395.597.395.956s-.142.703-.395.957c-.254.253-.597.396-.956.396Zm29.049 7.44h-59.589c-.358 0-.702-.142-.955-.396-.254-.254-.396-.598-.396-.957 0-.358.142-.703.396-.956.253-.254.597-.396.955-.396h59.589c.358 0 .702.142.955.396.253.253.396.598.396.956 0 .359-.143.703-.396.957s-.597.396-.955.396Zm-75.297 3.997c5.003 0 9.059-4.061 9.059-9.07s-4.056-9.07-9.059-9.07c-5.003 0-9.059 4.061-9.059 9.07s4.056 9.07 9.059 9.07Z" fill="#fff"/><path d="M286.378 382.431H183.873c-1.663-.002-3.257-.664-4.433-1.842-1.176-1.177-1.837-2.773-1.839-4.438v-13.832c.002-1.664.663-3.26 1.839-4.438 1.176-1.177 2.77-1.839 4.433-1.841h102.505c1.663.002 3.257.664 4.433 1.841 1.175 1.178 1.837 2.774 1.839 4.438v13.832c-.002 1.665-.664 3.261-1.839 4.438-1.176 1.178-2.77 1.84-4.433 1.842Z" fill="#E6E6E6"/><path d="M247.579 366.868h-30.203c-.358 0-.702-.142-.955-.396s-.396-.598-.396-.957c0-.358.143-.703.396-.956.253-.254.597-.396.955-.396h30.203c.358 0 .702.142.955.396.254.253.396.598.396.956 0 .359-.142.703-.396.957-.253.254-.597.396-.955.396Zm29.048 7.44h-59.588c-.359 0-.702-.142-.956-.396-.253-.254-.396-.598-.395-.956-.001-.359.142-.703.395-.957.254-.254.597-.396.956-.396h59.588c.358 0 .702.142.955.396.254.254.396.598.396.957 0 .358-.142.702-.396.956-.253.254-.597.396-.955.396Zm-75.296 3.997c5.003 0 9.059-4.06 9.059-9.07 0-5.009-4.056-9.069-9.059-9.069-5.003 0-9.059 4.06-9.059 9.069 0 5.01 4.056 9.07 9.059 9.07Z" fill="#fff"/><path d="M671.686 407H364.725c-2.637.004-5.165 1.054-7.03 2.92-1.865 1.865-2.914 4.394-2.919 7.032v207.216c.003 2.639 1.052 5.169 2.917 7.035 1.865 1.866 4.394 2.915 7.032 2.918h306.961c2.638-.003 5.167-1.052 7.032-2.918 1.865-1.866 2.914-4.396 2.917-7.035V416.952c-.004-2.638-1.054-5.167-2.919-7.032-1.865-1.866-4.393-2.916-7.03-2.92Z" fill="#E6E6E6"/><path d="M669.794 627.26H468.663c-28.183-.082-55.188-11.319-75.116-31.254-19.929-19.936-31.161-46.951-31.243-75.144v-101.34c0-1.502.596-2.942 1.656-4.004 1.061-1.063 2.499-1.662 4-1.665h301.834c1.501.003 2.939.602 4 1.665 1.06 1.062 1.656 2.502 1.656 4.004v202.08c-.002 1.5-.598 2.939-1.659 3.999-1.06 1.061-2.497 1.657-3.997 1.659Z" fill="#fff"/><path d="M653.951 442.031H371.526c-.294-.007-.573-.128-.778-.338-.206-.21-.321-.492-.321-.786 0-.294.115-.576.321-.786.205-.21.484-.331.778-.338h282.425c.294.007.573.128.778.338.206.21.321.492.321.786 0 .294-.115.576-.321.786-.205.21-.484.331-.778.338Z" fill="#CACACA"/><path d="M390.751 434.047c3.635 0 6.582-3.014 6.582-6.731 0-3.718-2.947-6.732-6.582-6.732s-6.582 3.014-6.582 6.732c0 3.717 2.947 6.731 6.582 6.731Zm22.738 0c3.635 0 6.582-3.014 6.582-6.731 0-3.718-2.947-6.732-6.582-6.732s-6.582 3.014-6.582 6.732c0 3.717 2.947 6.731 6.582 6.731Zm22.738 0c3.635 0 6.582-3.014 6.582-6.731 0-3.718-2.947-6.732-6.582-6.732s-6.582 3.014-6.582 6.732c0 3.717 2.947 6.731 6.582 6.731Z" fill="#3F3D56"/><path d="M563.862 543.032H449.489c-2.069.027-4.072-.731-5.604-2.122-1.533-1.391-2.482-3.311-2.656-5.374-.072-1.055.065-2.113.403-3.115.337-1.002.868-1.927 1.563-2.724.695-.796 1.54-1.448 2.487-1.918.947-.469 1.977-.748 3.031-.819.18-.013.36-.019.54-.019h114.609c2.133 0 4.178.848 5.687 2.357 1.508 1.508 2.355 3.555 2.355 5.689s-.847 4.18-2.355 5.689c-1.509 1.509-3.554 2.356-5.687 2.356Z" fill="#6C63FF"/><path d="M564.073 497.972c4.013 0 7.267-3.254 7.267-7.269 0-4.014-3.254-7.269-7.267-7.269s-7.266 3.255-7.266 7.269c0 4.015 3.253 7.269 7.266 7.269Z" fill="#E6E6E6"/><path d="M563.082 494.486c-.125 0-.249-.029-.361-.085-.113-.056-.21-.138-.285-.238l-1.983-2.644c-.064-.085-.111-.182-.138-.285-.027-.103-.033-.211-.018-.316.015-.106.05-.207.104-.299.054-.092.126-.172.211-.236.086-.064.183-.11.286-.136.103-.027.21-.032.316-.017.105.015.206.051.298.106.091.055.171.127.234.212l1.297 1.73 3.331-4.998c.119-.179.303-.303.513-.346.21-.043.429-.001.607.118.179.118.304.302.346.513.043.21.001.428-.117.607l-.004.005-3.964 5.949c-.072.108-.169.197-.282.259-.113.063-.239.097-.368.101h-.023Z" fill="#fff"/><path d="M564.073 586.475c4.013 0 7.267-3.255 7.267-7.269 0-4.015-3.254-7.269-7.267-7.269s-7.266 3.254-7.266 7.269c0 4.014 3.253 7.269 7.266 7.269Z" fill="#E6E6E6"/><path d="M563.082 582.989c-.125 0-.249-.029-.361-.085-.113-.057-.21-.138-.285-.239l-1.983-2.644c-.064-.085-.111-.181-.138-.284-.027-.104-.033-.211-.018-.316.015-.106.05-.207.104-.299.054-.092.126-.172.211-.236.086-.064.183-.11.286-.137.103-.026.21-.032.316-.016.105.015.206.051.298.106.091.054.171.127.234.212l1.297 1.73 3.331-4.998c.119-.179.303-.304.513-.347.21-.042.429 0 .607.118.179.119.304.303.346.513.043.21.001.429-.117.608l-.004.005-3.964 5.949c-.072.107-.169.196-.282.259-.113.063-.239.097-.368.101h-.023Z" fill="#fff"/><path d="M505.552 498.781h-56.063c-2.069.027-4.072-.732-5.604-2.123-1.533-1.391-2.482-3.311-2.656-5.373-.072-1.055.065-2.113.403-3.115.337-1.002.868-1.928 1.563-2.724.695-.796 1.54-1.448 2.487-1.918.947-.47 1.977-.748 3.031-.82.18-.012.36-.018.54-.018h56.299c2.133 0 4.179.847 5.687 2.356s2.356 3.556 2.356 5.689c0 2.134-.848 4.181-2.356 5.69-1.508 1.508-3.554 2.356-5.687 2.356Z" fill="#6C63FF"/><path d="M563.862 499.116H449.253c-2.222 0-4.353-.883-5.924-2.454-1.571-1.572-2.454-3.704-2.454-5.927 0-2.222.883-4.354 2.454-5.926 1.571-1.572 3.702-2.455 5.924-2.455h114.609c2.222 0 4.353.883 5.924 2.455 1.571 1.572 2.453 3.704 2.453 5.926 0 2.223-.882 4.355-2.453 5.927-1.571 1.571-3.702 2.454-5.924 2.454Zm-114.609-15.421c-1.866 0-3.656.742-4.976 2.062-1.32 1.321-2.061 3.111-2.061 4.978 0 1.868.741 3.658 2.061 4.978 1.32 1.321 3.11 2.062 4.976 2.062h114.609c1.866 0 3.656-.741 4.976-2.062 1.32-1.32 2.061-3.11 2.061-4.978 0-1.867-.741-3.657-2.061-4.978-1.32-1.32-3.11-2.062-4.976-2.062H449.253Zm114.609 59.673H449.253c-2.222 0-4.353-.883-5.924-2.455-1.571-1.572-2.454-3.703-2.454-5.926 0-2.223.883-4.355 2.454-5.926 1.571-1.572 3.702-2.455 5.924-2.455h114.609c2.222 0 4.353.883 5.924 2.455 1.571 1.571 2.453 3.703 2.453 5.926 0 2.223-.882 4.354-2.453 5.926-1.571 1.572-3.702 2.455-5.924 2.455Zm-114.609-15.421c-1.866 0-3.656.741-4.976 2.062-1.32 1.32-2.061 3.111-2.061 4.978 0 1.867.741 3.658 2.061 4.978 1.32 1.32 3.11 2.062 4.976 2.062h114.609c1.866 0 3.656-.742 4.976-2.062 1.32-1.32 2.061-3.111 2.061-4.978 0-1.867-.741-3.658-2.061-4.978-1.32-1.321-3.11-2.062-4.976-2.062H449.253Z" fill="#3F3D56"/><path d="M481.424 587.284h-31.935c-2.069.026-4.072-.732-5.604-2.123-1.533-1.391-2.482-3.311-2.656-5.374-.072-1.054.065-2.113.403-3.115.337-1.001.868-1.927 1.563-2.723.695-.797 1.54-1.449 2.487-1.918.947-.47 1.977-.749 3.031-.82.18-.012.36-.018.54-.019h32.171c2.133 0 4.179.848 5.687 2.357 1.508 1.509 2.356 3.555 2.356 5.689s-.848 4.18-2.356 5.689c-1.508 1.509-3.554 2.357-5.687 2.357Z" fill="#6C63FF"/><path d="M563.862 587.619H449.253c-2.222 0-4.353-.883-5.924-2.455-1.571-1.571-2.454-3.703-2.454-5.926 0-2.223.883-4.354 2.454-5.926 1.571-1.572 3.702-2.455 5.924-2.455h114.609c2.222 0 4.353.883 5.924 2.455 1.571 1.572 2.453 3.703 2.453 5.926 0 2.223-.882 4.355-2.453 5.926-1.571 1.572-3.702 2.455-5.924 2.455Zm-114.609-15.421c-1.866 0-3.656.742-4.976 2.062-1.32 1.32-2.061 3.111-2.061 4.978 0 1.867.741 3.658 2.061 4.978 1.32 1.32 3.11 2.062 4.976 2.062h114.609c1.866 0 3.656-.742 4.976-2.062 1.32-1.32 2.061-3.111 2.061-4.978 0-1.867-.741-3.658-2.061-4.978-1.32-1.32-3.11-2.062-4.976-2.062H449.253Z" fill="#3F3D56"/><path d="M470.701 474.047h-26.809c-.711 0-1.393-.282-1.896-.785-.503-.503-.785-1.185-.785-1.896 0-.712.282-1.394.785-1.897.503-.503 1.185-.785 1.896-.785h26.809c.711 0 1.393.282 1.895.785.503.503.786 1.185.786 1.897 0 .711-.283 1.393-.786 1.896-.502.503-1.184.785-1.895.785Zm0 44.252h-26.809c-.711 0-1.393-.283-1.896-.786-.503-.503-.785-1.185-.785-1.896 0-.711.282-1.394.785-1.896.503-.503 1.185-.786 1.896-.786h26.809c.711 0 1.393.283 1.895.786.503.502.786 1.185.786 1.896 0 .711-.283 1.393-.786 1.896-.502.503-1.184.786-1.895.786Zm0 44.251h-26.809c-.711 0-1.393-.282-1.896-.785-.503-.503-.785-1.185-.785-1.897 0-.711.282-1.393.785-1.896.503-.503 1.185-.786 1.896-.786h26.809c.711 0 1.393.283 1.895.786.503.503.786 1.185.786 1.896 0 .712-.283 1.394-.786 1.897-.502.503-1.184.785-1.895.785Z" fill="#CCC"/><path d="M430.495 474.624c1.609 0 2.913-1.333 2.913-2.979 0-1.645-1.304-2.979-2.913-2.979-1.609 0-2.913 1.334-2.913 2.979 0 1.646 1.304 2.979 2.913 2.979Zm0 44.252c1.609 0 2.913-1.334 2.913-2.979 0-1.646-1.304-2.979-2.913-2.979-1.609 0-2.913 1.333-2.913 2.979 0 1.645 1.304 2.979 2.913 2.979Zm0 44.251c1.609 0 2.913-1.334 2.913-2.979s-1.304-2.979-2.913-2.979c-1.609 0-2.913 1.334-2.913 2.979s1.304 2.979 2.913 2.979Z" fill="#3F3D56"/><path d="M622.459 771.866h-6.636l-3.156-25.606 9.793.001-.001 25.605Z" fill="#FFB6B6"/><path d="m622.693 778.792-20.406-.001v-.258c0-2.108.837-4.129 2.326-5.619 1.49-1.49 3.51-2.327 5.616-2.327l3.728-2.829 6.955 2.83h1.781v8.204Z" fill="#2F2E41"/><path d="M648.598 771.866h-6.636l-3.157-25.606 9.794.001-.001 25.605Z" fill="#FFB6B6"/><path d="m648.832 778.792-20.407-.001v-.258c0-2.108.837-4.129 2.327-5.619 1.489-1.49 3.51-2.327 5.616-2.327l3.728-2.829 6.955 2.83h1.781v8.204Zm-49.208-167.297-4.692 16.091 5.527 68.151s-2.846 4.261-.835 4.261c2.01 0 4.589.945 2.964 3.489-1.624 2.545 3.928 11.681 3.928 11.681l7.853 48.525 10.006-.148s5.087-2.835 2.232-5.702c-2.855-2.867-4.866-2.866-2.185-5.548 2.681-2.682 2.681-1.875 2.681-3.955s2.686-27.5-3.684-37.251l1.919-39.756 4.521 38.996 9.308 52.023 9.639-.08s4.452-4.293 4.444-7.47c-.008-3.178-2.751-3.442-.709-5.321 2.041-1.88 2.041-30.752-3.991-46.802l.046-71.788s5.927-16.112-.076-22.447c-6.002-6.336-48.896 3.051-48.896 3.051Z" fill="#2F2E41"/><path d="m660.038 583.42 4.041-41.871c.166-1.775-.373-3.543-1.499-4.924-1.126-1.381-2.749-2.264-4.52-2.458-1.79-.196-3.584.327-4.987 1.454-1.404 1.127-2.303 2.766-2.499 4.556-.013.12-.023.239-.03.359l-2.864 43.622-2.858 26.433c-1.164.351-2.193 1.051-2.946 2.007-.753.955-1.194 2.119-1.262 3.334-.069 1.215.238 2.421.879 3.455.641 1.034 1.584 1.846 2.702 2.325 1.118.479 2.356.602 3.547.353 1.19-.25 2.275-.86 3.107-1.747.831-.888 1.37-2.01 1.542-3.215.172-1.204-.031-2.432-.581-3.517l8.228-30.166Z" fill="#FFB6B6"/><path d="m644.885 520.325 14.559 1.826s10.909 20.569 8.664 22.315c-2.246 1.745-12.392 12.636-19.872 7.643-7.48-4.992-3.351-31.784-3.351-31.784Z" fill="#3F3D56"/><path d="M619.813 500.59c8.535 0 15.453-6.921 15.453-15.458 0-8.537-6.918-15.458-15.453-15.458-8.534 0-15.452 6.921-15.452 15.458 0 8.537 6.918 15.458 15.452 15.458Z" fill="#FFB6B6"/><path d="M625.784 499.323c-4.434-.145-4.837-1.317-9.271-1.463-1.412-.046-3.078-.24-3.761-1.477-.199-.463-.287-.967-.259-1.47.029-.504.174-.994.424-1.432.506-.869.962-1.767 1.366-2.688.244-.722.308-1.493.186-2.246-.121-.753-.423-1.464-.881-2.074-.458-.609-1.058-1.098-1.747-1.424-.689-.326-1.447-.479-2.208-.446-1.349.058-2.617.693-3.962.809-1.846.159-5.927-5.936-5.077-7.583.827-1.603 2.491-2.812 2.753-4.597.171-1.167-.31-2.327-.376-3.505-.098-1.746 4.328 2.192 3.517.642-1.988-3.802 16.748-8.516 19.832-3.754 1.153 1.78 3.207 1.659 5.038 2.728 1.201.701 4.231 3.118 4.92 4.624.633 1.538.932 3.192.878 4.854.027 7.728-1.15 14.837-7.381 19.405" fill="#2F2E41"/><path d="m615.709 504.889 12.734-2.682 9.782 4.707s23.135 9.31 23.056 18.489c-.078 9.18-4.145 29.294-8.814 31.305-4.669 2.012 4.044 8.717 1.363 12.74-2.681 4.022-6.742 31.506-6.742 31.506s9.494 18.919 1.462 22.609c-8.032 3.691-41.976 7.141-44.151 2.326-2.176-4.815-2.196-2.187-7.213-3.501-5.017-1.314.005-19.733 4.532-21.587 4.526-1.853 7.207-42.081 7.207-42.081l-7.207-31.28 10.996-15.485 2.995-7.066Z" fill="#3F3D56"/><path d="m606.79 590.871 11.505-40.461c.482-1.715.271-3.552-.589-5.113-.859-1.561-2.297-2.722-4.005-3.231-1.724-.515-3.583-.324-5.167.532-1.584.857-2.762 2.307-3.277 4.032-.034.116-.066.231-.094.348L594.5 589.373l-7.564 25.488c-1.209.135-2.347.638-3.259 1.443-.913.804-1.556 1.87-1.842 3.053-.285 1.182-.201 2.424.244 3.557.444 1.132 1.226 2.101 2.24 2.773 1.013.672 2.209 1.016 3.425.985 1.216-.031 2.393-.436 3.37-1.159.978-.724 1.71-1.731 2.095-2.885.386-1.153.407-2.398.061-3.564l13.52-28.193Z" fill="#FFB6B6"/><path d="m603.232 526.078 13.993 4.417s9.101 13.369 5.694 15.277c-3.407 1.907-4.686 1.504-2.936 4.868 1.75 3.365 4.273 2.052 1.75 3.365-2.522 1.313-14.461 10.199-20.921 3.942-6.46-6.257 2.42-31.869 2.42-31.869Z" fill="#3F3D56"/><path d="M564.073 548.64c7.556 0 13.681-6.127 13.681-13.686 0-7.558-6.125-13.685-13.681-13.685-7.555 0-13.68 6.127-13.68 13.685 0 7.559 6.125 13.686 13.68 13.686Z" fill="#6C63FF"/><path d="M562.207 542.077c-.236 0-.469-.055-.681-.161-.211-.105-.395-.259-.536-.448l-3.733-4.978c-.242-.323-.346-.729-.289-1.129.058-.399.271-.76.594-1.002.323-.243.729-.347 1.128-.289.4.057.76.27 1.002.593l2.442 3.257 6.271-9.411c.223-.336.57-.571.966-.651.395-.081.807-.001 1.143.222.337.222.571.57.652.965.08.396.001.807-.222 1.144l-.006.009-7.465 11.201c-.135.203-.316.37-.529.488-.213.118-.451.183-.695.19h-.042Z" fill="#fff"/><path d="M793.482 143.232H454.919v160.804h338.563V143.232Z" fill="#E6E6E6"/><path d="M783.801 157.021H464.6v134.164h319.201V157.021Z" fill="#fff"/><path d="M730.42 181.993h-8.266v8.274h8.266v-8.274Z" fill="#E6E6E6"/><path d="M509.948 181.993h-8.266v8.274h8.266v-8.274Z" fill="#6C63FF"/><path d="M528.996 205.692h-27.553v27.578h27.553v-27.578Z" fill="#E6E6E6"/><path d="M793.337 133.941H454.774v14.397h338.563v-14.397Z" fill="#6C63FF"/><path d="M465.463 147.002c1.473 0 2.666-1.195 2.666-2.669 0-1.473-1.193-2.668-2.666-2.668-1.472 0-2.666 1.195-2.666 2.668 0 1.474 1.194 2.669 2.666 2.669Zm10.119 0c1.472 0 2.666-1.195 2.666-2.669 0-1.473-1.194-2.668-2.666-2.668s-2.666 1.195-2.666 2.668c0 1.474 1.194 2.669 2.666 2.669Zm10.119 0c1.472 0 2.666-1.195 2.666-2.669 0-1.473-1.194-2.668-2.666-2.668s-2.666 1.195-2.666 2.668c0 1.474 1.194 2.669 2.666 2.669Z" fill="#fff"/><path d="M625.075 208.45h-67.503v3.879h67.503v-3.879Z" fill="#E6E6E6"/><path d="M661.812 222.598h-104.24v3.879h104.24v-3.879Z" fill="#6C63FF"/><path d="M642.525 235.927h-84.953v3.879h84.953v-3.879Zm-35.359 13.28h-49.594v3.878h49.594v-3.878Zm25.257 13.278h-74.851v3.879h74.851v-3.879Zm112.233-80.492h-8.265v8.274h8.265v-8.274Zm14.236 0h-8.266v8.274h8.266v-8.274Z" fill="#E6E6E6"/><path opacity=".997" d="M742.105 253.085c9.27 0 16.786-7.523 16.786-16.802 0-9.28-7.516-16.802-16.786-16.802-9.271 0-16.787 7.522-16.787 16.802 0 9.279 7.516 16.802 16.787 16.802Z" fill="#6C63FF"/><path d="M487.702 45.4956c10.437 0 18.898-8.469 18.898-18.916 0-10.447-8.461-18.916-18.898-18.916-10.438 0-18.899 8.469-18.899 18.916 0 10.447 8.461 18.916 18.899 18.916Z" fill="#2F2E41"/><path d="M440.67 188.427h-8.276l-3.937-31.946h12.212l.001 31.946Z" fill="#FEB8B8"/><path d="M426.485 186.06h15.959v10.058h-26.006c0-2.668 1.058-5.226 2.942-7.112 1.885-1.886 4.441-2.946 7.105-2.946Z" fill="#2F2E41"/><path d="m427.754 183.805-7.895-2.48 5.799-31.662 11.652 3.661-9.556 30.481Z" fill="#FEB8B8"/><path d="m414.923 177.297 15.226 4.783-3.008 9.596-24.813-7.795c.395-1.26 1.034-2.43 1.881-3.443.847-1.012 1.884-1.848 3.054-2.46 1.17-.611 2.448-.986 3.762-1.103 1.315-.117 2.639.026 3.898.422Zm15.523-6.24c-.362 0-.72-.065-1.059-.193l-6.089-2.284c-.684-.259-1.252-.755-1.6-1.398-.349-.643-.455-1.39-.3-2.104 1.533-6.898 6.756-30.382 9.617-42.977 3.392-14.941 52.877-17.717 54.981-17.828l.174-.009 5.566 6.999c2.012 6.472 1.374 11.519-1.895 15.004-9.539 10.165-38.018 3.857-41.413 3.059l-15.137 39.773c-.22.576-.61 1.072-1.118 1.421-.508.35-1.109.537-1.726.537h-.001Z" fill="#2F2E41"/><path d="M439.22 175.786c-.362 0-.72-.065-1.059-.192l-6.087-2.285c-.684-.259-1.252-.755-1.6-1.398-.349-.643-.455-1.39-.3-2.104 1.533-6.898 6.756-30.382 9.617-42.977 3.392-14.941 52.877-17.717 54.981-17.828l.174-.009 5.564 7.001c2.012 6.471 1.374 11.519-1.895 15.003-9.538 10.163-38.018 3.858-41.413 3.059l-15.139 39.772c-.22.576-.61 1.072-1.118 1.421-.508.35-1.109.537-1.726.537h.001Z" fill="#2F2E41"/><path d="M421.608 78.4879c.223.2995.423.6161.597.9469l33.289 3.5103 4.792-6.5765 10.861 5.9412-9.412 15.9581-40.826-10.4191c-1.03 1.0052-2.341 1.6727-3.76 1.9137-1.418.241-2.876.0441-4.18-.5645-1.303-.6086-2.391-1.6-3.118-2.8425-.727-1.2424-1.059-2.677-.952-4.1129.107-1.4359.649-2.8051 1.553-3.9254.903-1.1203 2.126-1.9388 3.506-2.3464 1.38-.4077 2.851-.3852 4.217.0643 1.367.4496 2.565 1.3049 3.434 2.4523l-.001.0005Z" fill="#FEB8B8"/><path d="M498.965 118.674c-.481-.001-.955-.117-1.383-.337-6.657-3.388-19.618-9.255-31.638-10.483-.411-.041-.81-.167-1.17-.37-.359-.204-.673-.48-.919-.812-.252-.336-.432-.719-.528-1.127-.097-.408-.109-.832-.035-1.245 1.085-6.0094 3.573-21.3125 3.252-33.5769-.094-3.771 1.096-7.4619 3.375-10.466 2.28-3.0041 5.512-5.1425 9.167-6.0638 2.199-.5809 4.433-1.0219 6.688-1.3202 2.593-.3287 5.227-.045 7.69.8283 2.464.8734 4.689 2.3121 6.497 4.2009 1.808 1.8888 3.149 4.1752 3.916 6.6761.766 2.5009.937 5.1467.498 7.7255-2.143 12.7099-4.304 30.4621-2.426 42.8541.086.555.017 1.124-.199 1.642-.217.519-.573.967-1.028 1.296-.51.373-1.125.576-1.757.578Z" fill="#CCC"/><path d="M467.161 86.3461c-.415-.0007-.825-.0864-1.206-.252l-8.672-3.7568c-.738-.3211-1.32-.9223-1.616-1.6717-.296-.7495-.284-1.586.035-2.3261l6.704-15.4991c.398-.9392.977-1.7907 1.704-2.5059.727-.7151 1.587-1.28 2.532-1.6623.945-.3823 1.956-.5745 2.976-.5657 1.019.0088 2.027.2185 2.965.617.938.3986 1.789.9782 2.503 1.7058.715.7276 1.279 1.589 1.661 2.5349.382.9459.574 1.9579.565 2.9781-.009 1.0202-.218 2.0287-.616 2.9679-.015.0341-.029.0682-.044.1021l-6.703 15.4996c-.236.5441-.626 1.0074-1.121 1.3332-.495.3258-1.075.4999-1.667.501Z" fill="#CCC"/><path d="M487.011 47.6004c9.156 0 16.577-7.4289 16.577-16.593 0-9.164-7.421-16.5929-16.577-16.5929-9.155 0-16.577 7.4289-16.577 16.5929 0 9.1641 7.422 16.593 16.577 16.593Z" fill="#FEB8B8"/><path d="M470.135 22.8535c7.852 4.7979 16.705 7.7175 25.868 8.5315l-2.727-3.2699c1.986.7347 4.075 1.1499 6.19 1.2301 1.059.0308 2.111-.1874 3.07-.637.96-.4496 1.801-1.1181 2.456-1.9518.534-.8654.852-1.8474.925-2.8622.074-1.0148-.099-2.0323-.503-2.9659-.831-1.8626-2.124-3.4814-3.757-4.7023-2.894-2.2914-6.309-3.8306-9.942-4.4804-3.632-.6498-7.369-.39-10.876.7562-2.407.7197-4.562 2.1034-6.218 3.9924-1.572 1.9406-4.597 3.6698-3.793 6.0342l-.693.3251Z" fill="#2F2E41"/><path d="M488.493 8.87546c3.304-3.35475 7.303-5.94372 11.715-7.58461 2.8-1.179111 5.872-1.560658 8.875-1.102503 2.961.596287 5.76 2.646213 6.587 5.553953.673 2.37744-.023 4.9374-1.071 7.1766-1.048 2.2392-2.447 4.3137-3.295 6.6353-.865 2.3689-1.125 4.9165-.757 7.4116.369 2.495 1.354 4.8585 2.866 6.8759 1.512 2.0173 3.504 3.6246 5.794 4.676 2.291 1.0514 4.807 1.5135 7.321 1.3445-2.908.3906-5.59 1.759-8.433 2.4867-2.844.7278-6.199.6792-8.312-1.3601-2.236-2.1574-2.281-5.6648-2.173-8.771l.482-13.8533c.081-2.3548.152-4.7852-.697-6.984-.849-2.19872-2.865-4.12292-5.219-4.10269-1.785.01493-3.363 1.09721-4.795 2.16407-1.431 1.06682-2.945 2.20502-4.722 2.36392-1.777.159-3.806-1.1559-3.674-2.93805" fill="#2F2E41"/><path d="M459.14 114.411c-1.098-.001-2.183-.246-3.175-.718-.993-.471-1.868-1.157-2.564-2.008-.695-.851-1.194-1.845-1.459-2.912-.266-1.067-.291-2.179-.075-3.257.215-1.078.667-2.095 1.323-2.977.656-.882 1.499-1.608 2.468-2.124.97-.517 2.042-.8121 3.139-.8642 1.097-.0521 2.192.1399 3.206.5622.305.129.601.279.885.449l30.198-13.5686.848-8.1977 13.017-.3487-.086 13.6476c-.016 1.5812-.54 3.1151-1.496 4.374-.956 1.259-2.292 2.1758-3.81 2.6143l-35.313 10.0591c-.068.234-.149.463-.241.689-.566 1.354-1.52 2.511-2.74 3.326-1.221.815-2.655 1.251-4.122 1.254h-.003Z" fill="#FEB8B8"/><path d="M505.849 85.1342c-.37.1875-.775.297-1.189.3218l-9.432.5804c-.803.0485-1.593-.2241-2.197-.7579-.603-.5338-.97-1.2853-1.02-2.0897l-1.035-16.8579c-.124-2.0553.572-4.0758 1.935-5.6176 1.363-1.5419 3.283-2.4789 5.336-2.6054 2.053-.1264 4.072.5681 5.614 1.9311 1.542 1.3629 2.481 3.2828 2.609 5.3378l1.036 16.8579c.036.5921-.102 1.1819-.396 1.697-.294.5151-.732.933-1.26 1.2025h-.001Z" fill="#CCC"/><path d="M486.858 111.386h-56.334c-.473 0-.856.384-.856.857v3.016c0 .473.383.856.856.856h56.334c.472 0 .855-.383.855-.856v-3.016c0-.473-.383-.857-.855-.857Z" fill="#3F3D56"/><path d="M408.022 111.724V78.6208c.001-1.1642.464-2.2803 1.286-3.1035.823-.8232 1.938-1.2863 3.101-1.2877h60.07c1.163.0013 2.278.4643 3.101 1.2876.822.8232 1.285 1.9394 1.286 3.1036v33.1032c-.001 1.165-.464 2.281-1.286 3.104-.823.823-1.938 1.286-3.101 1.288h-60.07c-1.163-.002-2.278-.465-3.101-1.288-.822-.823-1.285-1.939-1.286-3.104Z" fill="#3F3D56"/><path d="M443.167 99.2279c2.236 0 4.049-1.8149 4.049-4.0536 0-2.2387-1.813-4.0536-4.049-4.0536-2.237 0-4.05 1.8149-4.05 4.0536 0 2.2387 1.813 4.0536 4.05 4.0536Z" fill="#fff"/></svg>