<svg width="50" height="50" viewBox="0 0 50 50" fill="none" xmlns="http://www.w3.org/2000/svg">
<path d="M23.8611 33.6188C24.2518 33.9264 24.7813 34.0991 25.3334 34.0991C25.8854 34.0991 26.415 33.9264 26.8056 33.6188L34.6653 27.4256C35.0561 27.1175 35.2757 26.6996 35.2757 26.2638C35.2757 25.8281 35.0561 25.4102 34.6653 25.1021C34.2745 24.7939 33.7444 24.6208 33.1917 24.6208C32.639 24.6208 32.1089 24.7939 31.7181 25.1021L27.4167 28.4921V15.8616C27.4167 15.426 27.1972 15.0082 26.8065 14.7002C26.4158 14.3922 25.8859 14.2191 25.3334 14.2191C24.7808 14.2191 24.2509 14.3922 23.8602 14.7002C23.4695 15.0082 23.25 15.426 23.25 15.8616V28.4921L18.95 25.1021C18.7565 24.9495 18.5268 24.8285 18.2739 24.7459C18.0211 24.6633 17.7501 24.6208 17.4764 24.6208C17.2027 24.6208 16.9317 24.6633 16.6789 24.7459C16.4261 24.8285 16.1963 24.9495 16.0028 25.1021C15.8093 25.2546 15.6558 25.4358 15.5511 25.6351C15.4463 25.8344 15.3924 26.0481 15.3924 26.2638C15.3924 26.4796 15.4463 26.6932 15.5511 26.8926C15.6558 27.0919 15.8093 27.273 16.0028 27.4256L23.8611 33.6188Z" fill="white"/>
<circle cx="25" cy="25" r="22.5" stroke="url(#paint0_angular_0_1)" stroke-width="5"/>
<defs>
<radialGradient id="paint0_angular_0_1" cx="0" cy="0" r="1" gradientUnits="userSpaceOnUse" gradientTransform="translate(25 25) rotate(90) scale(25)">
<stop stop-color="#FF0000"/>
<stop offset="0.192708" stop-color="#DBFF00"/>
<stop offset="0.385417" stop-color="#70FF00"/>
<stop offset="0.59375" stop-color="#00D1FF"/>
<stop offset="0.807292" stop-color="#DB00FF"/>
<stop offset="1" stop-color="#FF0000"/>
</radialGradient>
</defs>
</svg>
