<?xml version="1.0" encoding="UTF-8"?>
<!DOCTYPE svg PUBLIC "-//W3C//DTD SVG 1.1//EN" "http://www.w3.org/Graphics/SVG/1.1/DTD/svg11.dtd">
<svg xmlns="http://www.w3.org/2000/svg" version="1.1" width="402px" height="147px" style="shape-rendering:geometricPrecision; text-rendering:geometricPrecision; image-rendering:optimizeQuality; fill-rule:evenodd; clip-rule:evenodd" xmlns:xlink="http://www.w3.org/1999/xlink">
<g><path style="opacity:0.9" fill="#24FF00" d="M 8.5,24.5 C 17.2498,24.0901 25.9164,24.5901 34.5,26C 40.4918,28.6587 44.3252,33.1587 46,39.5C 46.6667,64.1667 46.6667,88.8333 46,113.5C 43.5852,119.583 39.4185,124.083 33.5,127C 24.7144,129.105 16.0477,128.938 7.5,126.5C 6.04001,123.712 6.70667,121.545 9.5,120C 16.5,119.667 23.5,119.333 30.5,119C 34.0579,117.108 36.5579,114.275 38,110.5C 38.9696,86.7701 38.6363,63.1035 37,39.5C 35.0194,36.2553 32.1861,34.0886 28.5,33C 21.8333,32.6667 15.1667,32.3333 8.5,32C 6.11158,29.5972 6.11158,27.0972 8.5,24.5 Z"/></g>
<g><path style="opacity:0.93" fill="#FF5C00" d="M 63.5,24.5 C 65.4672,24.2606 67.3005,24.5939 69,25.5C 69.6667,59.1667 69.6667,92.8333 69,126.5C 66.6667,127.833 64.3333,127.833 62,126.5C 61.3333,93.1667 61.3333,59.8333 62,26.5C 62.7172,25.9558 63.2172,25.2891 63.5,24.5 Z"/></g>
<g><path style="opacity:0.882" fill="#00A3FF" d="M 95.5,24.5 C 98.5184,24.3354 101.518,24.502 104.5,25C 106.396,26.8083 106.896,28.975 106,31.5C 101.995,32.0278 98.1615,33.1945 94.5,35C 93.2364,36.8606 92.2364,38.8606 91.5,41C 92.5758,45.3184 94.0758,49.4851 96,53.5C 104.255,68.3413 112.255,83.3413 120,98.5C 124.037,107.578 123.203,116.078 117.5,124C 111.639,128.248 105.472,129.081 99,126.5C 98.3333,124.833 98.3333,123.167 99,121.5C 103.129,120.129 107.296,118.796 111.5,117.5C 114.146,114.628 114.979,111.295 114,107.5C 110.881,99.2612 107.214,91.2612 103,83.5C 97.4129,73.9941 92.0795,64.3274 87,54.5C 82.9272,46.9465 82.5938,39.2798 86,31.5C 88.7901,28.535 91.9567,26.2016 95.5,24.5 Z"/></g>
<g><path style="opacity:0.908" fill="#FF0000" d="M 156.5,24.5 C 162.842,24.3338 169.175,24.5005 175.5,25C 178.167,27.3333 178.167,29.6667 175.5,32C 168.754,32.1213 162.087,32.788 155.5,34C 151.612,36.2215 148.779,39.3882 147,43.5C 145.38,64.1154 145.047,84.7821 146,105.5C 147.61,111.881 151.443,116.381 157.5,119C 163.167,119.333 168.833,119.667 174.5,120C 177.551,121.36 178.218,123.527 176.5,126.5C 169.189,127.665 161.856,127.831 154.5,127C 145.467,123.968 139.967,117.801 138,108.5C 137.333,87.1667 137.333,65.8333 138,44.5C 140.587,34.4168 146.753,27.7502 156.5,24.5 Z"/></g>
<g><path style="opacity:0.907" fill="#BD51FF" d="M 249.5,24.5 C 261.505,24.3335 273.505,24.5001 285.5,25C 288.167,27.3333 288.167,29.6667 285.5,32C 280.914,32.1971 276.414,32.6971 272,33.5C 271.829,64.7383 271.329,95.905 270.5,127C 267.937,127.918 265.77,127.418 264,125.5C 263.667,94.8333 263.333,64.1667 263,33.5C 258.586,32.6971 254.086,32.1971 249.5,32C 246.901,29.4213 246.901,26.9213 249.5,24.5 Z"/></g>
<g><path style="opacity:0.915" fill="#BD51FF" d="M 303.5,24.5 C 315.838,24.3335 328.171,24.5001 340.5,25C 341.833,27.3333 341.833,29.6667 340.5,32C 328.167,32.6667 315.833,32.6667 303.5,32C 300.914,29.506 300.914,27.006 303.5,24.5 Z"/></g>
<g><path style="opacity:0.903" fill="#BD51FF" d="M 357.5,24.5 C 359.262,24.3573 360.929,24.6906 362.5,25.5C 363.333,37.1524 363.833,48.8191 364,60.5C 371.583,49.0018 378.917,37.3352 386,25.5C 392.611,23.7801 394.611,26.1134 392,32.5C 382.709,46.7752 373.876,61.2752 365.5,76C 373.681,90.8545 382.514,105.354 392,119.5C 395.282,126.547 393.282,128.88 386,126.5C 379.083,114.998 371.917,103.664 364.5,92.5C 363.668,103.819 363.168,115.152 363,126.5C 360.358,128.059 358.025,127.725 356,125.5C 355.333,92.5 355.333,59.5 356,26.5C 356.717,25.9558 357.217,25.2891 357.5,24.5 Z"/></g>
<g><path style="opacity:0.868" fill="#BD51FF" d="M 214.5,25.5 C 224.916,26.4119 231.083,32.0785 233,42.5C 233.667,64.8333 233.667,87.1667 233,109.5C 231.169,121.163 224.336,127.496 212.5,128.5C 201.543,127.703 194.709,122.036 192,111.5C 191.333,100.167 191.333,88.8333 192,77.5C 193.938,75.0216 196.105,74.8549 198.5,77C 199.321,87.4234 199.821,97.9234 200,108.5C 202.123,117.151 207.623,120.651 216.5,119C 219.667,117.167 222.167,114.667 224,111.5C 224.667,88.1667 224.667,64.8333 224,41.5C 222.325,36.9933 219.158,33.9933 214.5,32.5C 213.286,30.1413 213.286,27.808 214.5,25.5 Z"/></g>
<g><path style="opacity:0.915" fill="#BD51FF" d="M 302.5,72.5 C 315.171,72.3334 327.838,72.5001 340.5,73C 342.059,75.6417 341.725,77.975 339.5,80C 327.5,80.6667 315.5,80.6667 303.5,80C 301.163,77.8063 300.83,75.3063 302.5,72.5 Z"/></g>
<g><path style="opacity:0.825" fill="#BD51FF" d="M 304.5,119.5 C 316.171,119.333 327.838,119.5 339.5,120C 342.167,122.667 342.167,125.333 339.5,128C 327.833,128.667 316.167,128.667 304.5,128C 302.354,127.521 301.354,126.188 301.5,124C 301.557,121.791 302.557,120.291 304.5,119.5 Z"/></g>
</svg>
